<?xml version="1.0" encoding="utf-8"?>
<!-- Generator: Adobe Illustrator 13.0.0, SVG Export Plug-In . SVG Version: 6.00 Build 14948)  -->
<!DOCTYPE svg PUBLIC "-//W3C//DTD SVG 1.0//EN" "http://www.w3.org/TR/2001/REC-SVG-20010904/DTD/svg10.dtd">
<svg version="1.0"
	 id="svg2759" inkscape:output_extension="org.inkscape.output.svg.inkscape" sodipodi:version="0.32" inkscape:version="0.45+devel" sodipodi:docname="by-nc-sa.svg" xmlns:dc="http://purl.org/dc/elements/1.1/" xmlns:cc="http://web.resource.org/cc/" xmlns:rdf="http://www.w3.org/1999/02/22-rdf-syntax-ns#" xmlns:svg="http://www.w3.org/2000/svg" xmlns:sodipodi="http://sodipodi.sourceforge.net/DTD/sodipodi-0.dtd" xmlns:inkscape="http://www.inkscape.org/namespaces/inkscape"
	 xmlns="http://www.w3.org/2000/svg" xmlns:xlink="http://www.w3.org/1999/xlink" x="0px" y="0px" width="180px" height="63px"
	 viewBox="-30 -10.5 180 63" enable-background="new -30 -10.5 180 63" xml:space="preserve">
<sodipodi:namedview  height="42px" width="120px" id="base" inkscape:window-height="624" inkscape:window-y="319" inkscape:window-x="170" inkscape:current-layer="layer1" inkscape:document-units="px" inkscape:pageshadow="2" inkscape:pageopacity="0.0" inkscape:showpageshadow="false" inkscape:window-width="1198" objecttolerance="10" guidetolerance="10" gridtolerance="10000" borderopacity="1" inkscape:cx="60" inkscape:cy="31" bordercolor="#8b8b8b" inkscape:zoom="1.8760684" pagecolor="#ffffff">
	</sodipodi:namedview>
<g id="layer1" inkscape:groupmode="layer" inkscape:label="Layer 1">
	<g id="g2630">
		<path id="path3817_5_" fill="#AAB2AB" d="M-24.888-9.821l170.03,0.303c2.376,0,4.5-0.353,4.5,4.74l-0.208,55.993H-29.179V-4.986
			C-29.179-7.498-28.936-9.821-24.888-9.821z"/>
		<path id="path120" d="M146.631-10.5h-173.26C-28.487-10.5-30-8.987-30-7.129v58.87c0,0.42,0.341,0.76,0.761,0.76h178.478
			c0.422,0,0.762-0.34,0.762-0.76v-58.87C150-8.987,148.488-10.5,146.631-10.5z M-26.629-8.978h173.26
			c1.018,0,1.846,0.829,1.846,1.848c0,0,0,23.695,0,40.831H24.643C20.104,41.908,11.357,47.48,1.321,47.48
			c-10.039,0-18.781-5.568-23.317-13.779h-6.481c0-17.136,0-40.831,0-40.831C-28.478-8.148-27.647-8.978-26.629-8.978z"/>
		<g id="g5908_5_" transform="matrix(0.8674921,0,0,0.8673951,-387.30972,67.870882)">
			<path id="path5906_5_" fill="#FFFFFF" d="M471.581-56.541c0.008,13.021-10.541,23.581-23.562,23.591
				c-13.02,0.007-23.582-10.544-23.59-23.563c0-0.01,0-0.018,0-0.028c-0.009-13.022,10.541-23.582,23.562-23.591
				c13.022-0.007,23.584,10.541,23.591,23.562C471.581-56.561,471.581-56.551,471.581-56.541z"/>
			<g id="g5706_5_" transform="translate(-289.6157,99.0653)">
				<path id="path5708_5_" d="M756.787-174.81c5.227,5.228,7.842,11.63,7.842,19.204c0,7.575-2.569,13.908-7.707,19.001
					c-5.454,5.364-11.898,8.045-19.336,8.045c-7.346,0-13.679-2.658-18.996-7.978c-5.319-5.32-7.978-11.675-7.978-19.069
					c0-7.393,2.659-13.794,7.978-19.204c5.182-5.23,11.515-7.844,18.996-7.844C745.159-182.654,751.558-180.04,756.787-174.81z
					 M722.109-171.293c-4.42,4.465-6.631,9.695-6.631,15.693c0,5.997,2.188,11.183,6.562,15.556
					c4.376,4.374,9.583,6.563,15.626,6.563s11.295-2.209,15.76-6.628c4.24-4.106,6.359-9.267,6.359-15.491
					c0-6.177-2.155-11.42-6.462-15.727c-4.306-4.305-9.525-6.46-15.657-6.46C731.535-177.787,726.346-175.622,722.109-171.293z
					 M733.74-158.238c-0.675-1.473-1.685-2.21-3.035-2.21c-2.382,0-3.574,1.605-3.574,4.814c0,3.21,1.192,4.812,3.574,4.812
					c1.575,0,2.698-0.78,3.373-2.346l3.305,1.759c-1.575,2.8-3.939,4.201-7.088,4.201c-2.431,0-4.377-0.745-5.839-2.235
					c-1.463-1.49-2.195-3.545-2.195-6.163c0-2.573,0.755-4.615,2.262-6.128c1.507-1.512,3.386-2.269,5.637-2.269
					c3.33,0,5.714,1.312,7.156,3.934L733.74-158.238z M749.286-158.238c-0.676-1.473-1.668-2.21-2.974-2.21
					c-2.432,0-3.648,1.605-3.648,4.814c0,3.21,1.217,4.812,3.648,4.812c1.577,0,2.681-0.78,3.311-2.346l3.378,1.759
					c-1.572,2.8-3.932,4.201-7.076,4.201c-2.427,0-4.369-0.745-5.83-2.235c-1.458-1.49-2.19-3.545-2.19-6.163
					c0-2.573,0.742-4.615,2.226-6.128c1.482-1.512,3.368-2.269,5.66-2.269c3.324,0,5.705,1.312,7.142,3.934L749.286-158.238z"/>
			</g>
		</g>
		<g id="g126" transform="matrix(0.9937808,0,0,0.9936696,-437.12334,-74.436914)">
			
				<circle id="circle128" sodipodi:ry="10.80615" sodipodi:rx="10.80615" sodipodi:cy="90.231934" sodipodi:cx="491.94629" fill="#FFFFFF" cx="487.802" cy="87.325" r="16.207">
			</circle>
			<g id="g130">
				<path id="path132" d="M492.494,82.635c0-0.625-0.507-1.13-1.132-1.13h-7.158c-0.624,0-1.131,0.505-1.131,1.13v7.16h1.997v8.477
					h5.426v-8.477h1.998V82.635L492.494,82.635z"/>
				
					<circle id="circle134" sodipodi:ry="1.63232" sodipodi:rx="1.63232" sodipodi:cy="84.090332" sodipodi:cx="491.93359" cx="487.783" cy="78.113" r="2.448">
				</circle>
			</g>
			<path id="path136" d="M487.76,69.465c-4.847,0-8.951,1.691-12.311,5.076c-3.446,3.5-5.169,7.644-5.169,12.427
				c0,4.783,1.723,8.898,5.169,12.34c3.447,3.441,7.552,5.163,12.311,5.163c4.82,0,8.997-1.736,12.532-5.207
				c3.33-3.296,4.993-7.395,4.993-12.297s-1.693-9.043-5.081-12.427C496.816,71.157,492.669,69.465,487.76,69.465z M487.806,72.614
				c3.973,0,7.345,1.401,10.12,4.202c2.806,2.77,4.208,6.155,4.208,10.151c0,4.025-1.374,7.366-4.12,10.02
				c-2.892,2.86-6.294,4.289-10.208,4.289c-3.915,0-7.289-1.414-10.122-4.245c-2.833-2.829-4.249-6.184-4.249-10.065
				c0-3.88,1.43-7.264,4.293-10.151C480.475,74.016,483.833,72.614,487.806,72.614z"/>
		</g>
		<g id="g138" transform="matrix(0.9937808,0,0,0.9936696,-437.12334,-74.436914)" enable-background="new    ">
			<path id="path140" fill="#FFFFFF" d="M482.728,113.779c0.476,0,0.911,0.041,1.304,0.125c0.392,0.085,0.729,0.222,1.011,0.413
				c0.28,0.191,0.497,0.446,0.652,0.763c0.154,0.318,0.231,0.708,0.231,1.176c0,0.504-0.114,0.923-0.344,1.257
				c-0.229,0.338-0.568,0.612-1.017,0.827c0.619,0.177,1.079,0.486,1.384,0.932c0.305,0.442,0.457,0.979,0.457,1.604
				c0,0.504-0.098,0.941-0.294,1.309c-0.197,0.369-0.462,0.669-0.794,0.902c-0.332,0.234-0.71,0.407-1.136,0.519
				c-0.426,0.112-0.862,0.168-1.312,0.168h-4.854v-9.995H482.728L482.728,113.779z M482.446,117.821c0.393,0,0.715-0.094,0.967-0.28
				c0.254-0.186,0.379-0.488,0.379-0.907c0-0.232-0.042-0.425-0.126-0.573c-0.086-0.148-0.197-0.265-0.338-0.349
				c-0.14-0.085-0.301-0.143-0.483-0.175c-0.183-0.031-0.372-0.048-0.569-0.048h-2.059v2.332H482.446z M482.575,122.064
				c0.215,0,0.421-0.021,0.617-0.064c0.196-0.042,0.369-0.113,0.52-0.21c0.149-0.097,0.268-0.23,0.357-0.398
				c0.088-0.168,0.133-0.383,0.133-0.644c0-0.512-0.145-0.879-0.434-1.099c-0.291-0.218-0.675-0.327-1.15-0.327h-2.4v2.742H482.575z
				"/>
			<path id="path142" fill="#FFFFFF" d="M486.793,113.779h2.464l2.341,3.948l2.328-3.948h2.45l-3.712,6.159v3.836h-2.203v-3.892
				L486.793,113.779z"/>
		</g>
		<g id="g144" transform="matrix(0.9937808,0,0,0.9936696,-437.12334,-74.436914)" enable-background="new    ">
			<path id="path146" fill="#FFFFFF" d="M558.255,121.303c0.123,0.233,0.282,0.422,0.482,0.566c0.201,0.146,0.435,0.254,0.707,0.323
				c0.269,0.069,0.546,0.104,0.838,0.104c0.195,0,0.404-0.015,0.628-0.049c0.222-0.031,0.432-0.095,0.628-0.19
				c0.195-0.091,0.357-0.221,0.489-0.384c0.13-0.163,0.195-0.371,0.195-0.623c0-0.271-0.086-0.489-0.259-0.657
				c-0.171-0.17-0.398-0.309-0.675-0.421c-0.28-0.112-0.598-0.209-0.952-0.295c-0.354-0.085-0.713-0.177-1.076-0.28
				c-0.374-0.094-0.737-0.207-1.091-0.342c-0.354-0.136-0.672-0.312-0.952-0.526c-0.277-0.214-0.504-0.483-0.675-0.804
				c-0.174-0.324-0.259-0.714-0.259-1.17c0-0.513,0.109-0.958,0.327-1.338c0.219-0.377,0.507-0.692,0.861-0.945
				c0.354-0.253,0.755-0.438,1.203-0.559c0.448-0.123,0.896-0.183,1.341-0.183c0.525,0,1.026,0.059,1.506,0.177
				c0.478,0.115,0.905,0.307,1.278,0.566c0.372,0.262,0.668,0.596,0.888,1.002c0.218,0.407,0.327,0.899,0.327,1.477h-2.131
				c-0.02-0.298-0.081-0.545-0.189-0.74c-0.106-0.198-0.248-0.351-0.424-0.463s-0.379-0.192-0.605-0.239
				c-0.228-0.046-0.477-0.07-0.747-0.07c-0.175,0-0.352,0.02-0.529,0.057c-0.177,0.036-0.336,0.101-0.481,0.196
				c-0.144,0.094-0.262,0.209-0.355,0.351c-0.093,0.14-0.141,0.316-0.141,0.531c0,0.198,0.038,0.357,0.112,0.476
				c0.074,0.123,0.221,0.235,0.441,0.338c0.219,0.102,0.521,0.203,0.909,0.307c0.386,0.103,0.893,0.236,1.516,0.392
				c0.187,0.038,0.446,0.106,0.774,0.203c0.332,0.1,0.66,0.254,0.988,0.469c0.325,0.217,0.607,0.504,0.846,0.862
				c0.236,0.359,0.356,0.819,0.356,1.38c0,0.458-0.09,0.883-0.267,1.276c-0.177,0.392-0.44,0.731-0.79,1.014
				c-0.351,0.286-0.784,0.507-1.303,0.664c-0.516,0.161-1.116,0.24-1.798,0.24c-0.551,0-1.085-0.07-1.604-0.204
				c-0.517-0.137-0.975-0.349-1.371-0.638c-0.396-0.29-0.711-0.66-0.946-1.109c-0.233-0.448-0.345-0.98-0.334-1.598h2.132
				C558.075,120.784,558.134,121.07,558.255,121.303z"/>
			<path id="path148" fill="#FFFFFF" d="M570.642,113.779l3.738,9.995h-2.282l-0.758-2.226h-3.738l-0.784,2.226h-2.213l3.781-9.995
				H570.642z M570.767,119.907l-1.26-3.666h-0.029l-1.3,3.666H570.767z"/>
		</g>
		<g id="g150" transform="matrix(0.9937808,0,0,0.9936696,-437.12334,-74.436914)" enable-background="new    ">
			<path id="path152" fill="#FFFFFF" d="M519.128,113.779l4.177,6.705h0.024v-6.705h2.061v9.995h-2.198l-4.161-6.693h-0.027v6.693
				h-2.064v-9.995H519.128z"/>
			<path id="path154" fill="#FFFFFF" d="M533.736,116.442c-0.13-0.21-0.295-0.395-0.489-0.554c-0.198-0.157-0.419-0.283-0.666-0.37
				c-0.248-0.09-0.507-0.135-0.775-0.135c-0.495,0-0.917,0.095-1.262,0.288c-0.345,0.19-0.625,0.446-0.84,0.769
				c-0.215,0.323-0.371,0.689-0.469,1.099c-0.099,0.41-0.147,0.834-0.147,1.274c0,0.421,0.048,0.828,0.147,1.224
				c0.097,0.398,0.254,0.755,0.469,1.07c0.215,0.318,0.495,0.572,0.84,0.764s0.766,0.288,1.262,0.288
				c0.669,0,1.197-0.205,1.574-0.617c0.377-0.411,0.608-0.951,0.693-1.624h2.128c-0.056,0.625-0.2,1.189-0.433,1.693
				c-0.233,0.507-0.542,0.935-0.926,1.291c-0.382,0.357-0.83,0.626-1.344,0.814c-0.513,0.189-1.078,0.282-1.692,0.282
				c-0.766,0-1.456-0.134-2.068-0.4c-0.609-0.265-1.127-0.634-1.547-1.1c-0.421-0.466-0.745-1.016-0.969-1.645
				c-0.224-0.631-0.336-1.309-0.336-2.04c0-0.746,0.112-1.439,0.336-2.079s0.548-1.198,0.969-1.675
				c0.42-0.477,0.937-0.849,1.547-1.12c0.612-0.271,1.302-0.407,2.068-0.407c0.549,0,1.07,0.08,1.56,0.239
				c0.489,0.159,0.93,0.389,1.317,0.696c0.387,0.303,0.708,0.678,0.959,1.126c0.252,0.448,0.41,0.964,0.476,1.542h-2.128
				C533.951,116.882,533.865,116.651,533.736,116.442z"/>
		</g>
		<g id="g6332_1_" transform="matrix(0.621108,0,0,0.6210385,-285.77182,240.48957)">
			<path id="path6334_1_" fill="#FFFFFF" d="M688.515-367.961c0.009,14.116-11.426,25.572-25.547,25.581
				c-14.118,0.009-25.57-11.426-25.58-25.547c0-0.01,0-0.024,0-0.034c-0.009-14.118,11.427-25.572,25.542-25.582
				c14.121-0.011,25.57,11.426,25.584,25.543C688.515-367.986,688.515-367.975,688.515-367.961z"/>
			<g id="g6336_1_" transform="translate(-23.9521,-89.72962)">
				<path id="path6338_1_" d="M686.721-306.238c-7.758,0-14.327,2.708-19.698,8.119c-5.516,5.603-8.273,12.231-8.273,19.887
					c0,7.653,2.758,14.234,8.273,19.742c5.511,5.508,12.078,8.263,19.698,8.263c7.709,0,14.393-2.779,20.048-8.331
					c5.325-5.276,7.99-11.834,7.99-19.675c0-7.842-2.707-14.471-8.132-19.887C701.208-303.53,694.571-306.238,686.721-306.238z
					 M686.788-301.196c6.358,0,11.754,2.239,16.196,6.721c4.484,4.433,6.728,9.845,6.728,16.244c0,6.44-2.197,11.784-6.589,16.033
					c-4.627,4.574-10.072,6.859-16.335,6.859c-6.259,0-11.66-2.264-16.193-6.791c-4.533-4.527-6.797-9.892-6.797-16.101
					c0-6.21,2.288-11.624,6.868-16.244C675.061-298.957,680.435-301.196,686.788-301.196z"/>
				<path id="path6340_1_" d="M674.307-282.184c1.115-7.048,6.075-10.815,12.292-10.815c8.938,0,14.388,6.488,14.388,15.138
					c0,8.443-5.799,15-14.53,15c-6.005,0-11.385-3.697-12.363-10.952h7.056c0.211,3.766,2.656,5.092,6.146,5.092
					c3.981,0,6.566-3.698,6.566-9.348c0-5.932-2.234-9.069-6.426-9.069c-3.074,0-5.726,1.117-6.286,4.953l2.052-0.014l-5.555,5.555
					l-5.553-5.555L674.307-282.184z"/>
			</g>
		</g>
		<g id="g2366" transform="translate(4.972327e-4,9.6235539e-3)">
			<path id="path6372_1_" fill="#FFFFFF" d="M101.703,11.977c0.007,8.25-6.679,14.943-14.93,14.949
				c-8.252,0.006-14.945-6.678-14.951-14.928c0-0.009,0-0.015,0-0.021c-0.006-8.252,6.679-14.944,14.93-14.95
				c8.252-0.005,14.945,6.678,14.951,14.927C101.703,11.961,101.703,11.969,101.703,11.977z"/>
			<path id="path45" d="M99.105-0.377c-3.366-3.364-7.488-5.044-12.365-5.044c-4.817,0-8.896,1.68-12.235,5.044
				c-3.425,3.479-5.136,7.596-5.136,12.351c0,4.754,1.711,8.843,5.136,12.263c3.427,3.422,7.503,5.133,12.235,5.133
				c4.789,0,8.94-1.726,12.453-5.176c3.309-3.276,4.965-7.35,4.965-12.22C104.158,7.103,102.474,2.985,99.105-0.377z M96.928,21.932
				c-2.874,2.841-6.255,4.262-10.146,4.262c-3.889,0-7.242-1.406-10.058-4.219s-4.224-6.146-4.224-10.001
				c0-1.631,0.257-3.172,0.767-4.625l4.61,2.04h-0.333v2.067h1.632c0,0.292-0.029,0.583-0.029,0.874v0.496h-1.603v2.068h1.893
				c0.264,1.543,0.845,2.795,1.632,3.786c1.631,2.155,4.251,3.32,7.104,3.32c1.864,0,3.554-0.554,4.544-1.107l-0.7-3.232
				c-0.612,0.321-1.979,0.758-3.319,0.758c-1.456,0-2.824-0.437-3.756-1.485c-0.437-0.495-0.758-1.166-0.961-2.039h6.331
				l8.995,3.981C98.686,19.978,97.895,20.998,96.928,21.932z M85.615,12.824l-0.039-0.029l0.067,0.029H85.615z M91.031,11.455h0.261
				V9.388h-4.931l-2.004-0.886c0.173-0.388,0.377-0.735,0.615-1.006c0.902-1.109,2.183-1.573,3.582-1.573
				c1.281,0,2.474,0.378,3.23,0.698l0.816-3.319c-1.049-0.465-2.593-0.873-4.368-0.873c-2.736,0-5.067,1.106-6.727,2.97
				c-0.369,0.426-0.688,0.903-0.979,1.408l-5.72-2.531c0.555-0.831,1.205-1.629,1.961-2.391c2.73-2.784,6.067-4.175,10.014-4.175
				c3.949,0,7.301,1.392,10.061,4.175c2.785,2.754,4.178,6.117,4.178,10.089c0,1.31-0.149,2.543-0.442,3.707L91.031,11.455z"/>
		</g>
	</g>
</g>
</svg>
