<?xml version="1.0" encoding="utf-8"?>
<!-- Generator: Adobe Illustrator 13.0.0, SVG Export Plug-In . SVG Version: 6.00 Build 14948)  -->
<!DOCTYPE svg PUBLIC "-//W3C//DTD SVG 1.1//EN" "http://www.w3.org/Graphics/SVG/1.1/DTD/svg11.dtd">
<svg version="1.1" id="Calque_1" xmlns="http://www.w3.org/2000/svg" xmlns:xlink="http://www.w3.org/1999/xlink" x="0px" y="0px"
	 width="86.4px" height="57.6px" viewBox="-19.2 -12.8 86.4 57.6" enable-background="new -19.2 -12.8 86.4 57.6"
	 xml:space="preserve">
<g shape-rendering="geometricPrecision" image-rendering="optimizeQuality" text-rendering="geometricPrecision">
	<g shape-rendering="geometricPrecision" image-rendering="optimizeQuality" text-rendering="geometricPrecision">
		<g id="Background">
		</g>
		<g id="Guides">
		</g>
		<g id="Foreground">
			<rect x="-19.2" y="-12.8" fill="none" width="86.4" height="57.6"/>
			<g>
				<path fill="#005A9C" d="M2.541-3.193l6.911,23.496l6.911-23.496h5.003h13.733v2.335l-7.056,12.153
					c2.479,0.795,4.353,2.241,5.625,4.338c1.269,2.097,1.905,4.558,1.905,7.386c0,3.496-0.928,6.436-2.788,8.817
					c-1.859,2.382-4.266,3.573-7.221,3.573c-2.225,0-4.163-0.708-5.814-2.121c-1.652-1.414-2.875-3.326-3.669-5.741l3.908-1.621
					c0.572,1.461,1.327,2.612,2.264,3.454c0.937,0.842,2.042,1.264,3.312,1.264c1.336,0,2.463-0.748,3.386-2.239
					c0.921-1.494,1.381-3.289,1.381-5.388c0-2.318-0.493-4.115-1.477-5.386c-1.146-1.492-2.94-2.24-5.387-2.24h-1.905v-2.287
					l6.67-11.535h-8.053l-0.458,0.781L9.925,35.409H9.449l-7.15-23.925l-7.148,23.925h-0.477L-16.762-3.193h5.005l6.911,23.496
					l4.67-15.822l-2.288-7.674H2.541z"/>
			</g>
			<path d="M61.104-3.193c-0.982,0-1.865,0.354-2.533,1.033c-0.708,0.721-1.104,1.651-1.104,2.614s0.374,1.854,1.063,2.554
				c0.699,0.708,1.602,1.094,2.573,1.094c0.953,0,1.876-0.386,2.595-1.083c0.689-0.669,1.065-1.56,1.065-2.563
				c0-0.974-0.387-1.884-1.055-2.564C63.009-2.818,62.095-3.193,61.104-3.193z M64.274,0.485c0,0.841-0.323,1.621-0.921,2.198
				c-0.629,0.608-1.409,0.933-2.271,0.933c-0.809,0-1.61-0.334-2.208-0.942c-0.598-0.608-0.932-1.389-0.932-2.218
				c0-0.831,0.345-1.642,0.963-2.27c0.577-0.588,1.357-0.901,2.208-0.901c0.87,0,1.65,0.325,2.259,0.942
				C63.962-1.186,64.274-0.397,64.274,0.485z M61.206-1.684h-1.562v4.134h0.78V0.688h0.771l0.84,1.763h0.872l-0.923-1.884
				c0.598-0.122,0.942-0.526,0.942-1.115C62.927-1.298,62.36-1.684,61.206-1.684z M61.063-1.177c0.729,0,1.063,0.202,1.063,0.709
				c0,0.485-0.334,0.658-1.044,0.658h-0.659v-1.368H61.063z"/>
		</g>
		<g id="Calque_1_1_">
			<g>
				<path d="M54.969-3.41l0.811,4.928L52.91,7.009c0,0-1.102-2.33-2.932-3.619c-1.542-1.086-2.547-1.323-4.117-0.999
					c-2.016,0.417-4.305,2.829-5.303,5.802c-1.193,3.559-1.206,5.281-1.248,6.863c-0.067,2.535,0.334,4.034,0.334,4.034
					s-1.744-3.224-1.727-7.944c0.011-3.37,0.542-6.425,2.099-9.44c1.371-2.651,3.41-4.242,5.221-4.429
					c1.871-0.193,3.349,0.708,4.491,1.683c1.201,1.025,2.412,3.265,2.412,3.265L54.969-3.41z"/>
				<path d="M55.322,24.476c0,0-1.268,2.267-2.059,3.14c-0.791,0.874-2.204,2.412-3.949,3.182c-1.746,0.771-2.663,0.914-4.388,0.749
					s-3.328-1.164-3.889-1.58c-0.561-0.417-1.997-1.644-2.807-2.786c-0.813-1.145-2.082-3.432-2.082-3.432s0.709,2.292,1.15,3.267
					c0.256,0.559,1.037,2.271,2.147,3.762c1.035,1.392,3.048,3.786,6.104,4.324c3.057,0.541,5.157-0.83,5.676-1.164
					c0.519-0.33,1.615-1.25,2.308-1.99c0.725-0.774,1.41-1.763,1.79-2.355c0.277-0.432,0.728-1.311,0.728-1.311L55.322,24.476z"/>
			</g>
		</g>
	</g>
</g>
</svg>
